<svg width="25" height="24" viewBox="0 0 25 24" fill="none" xmlns="http://www.w3.org/2000/svg">
<g id="business/calendar-event-fill" clip-path="url(#clip0_2966_402)">
<g id="Group">
<path id="Vector" d="M17.6667 3H21.6667C21.932 3 22.1863 3.10536 22.3739 3.29289C22.5614 3.48043 22.6667 3.73478 22.6667 4V20C22.6667 20.2652 22.5614 20.5196 22.3739 20.7071C22.1863 20.8946 21.932 21 21.6667 21H3.66675C3.40153 21 3.14718 20.8946 2.95964 20.7071C2.7721 20.5196 2.66675 20.2652 2.66675 20V4C2.66675 3.73478 2.7721 3.48043 2.95964 3.29289C3.14718 3.10536 3.40153 3 3.66675 3H7.66675V1H9.66675V3H15.6667V1H17.6667V3ZM4.66675 9V19H20.6667V9H4.66675ZM6.66675 13H11.6667V17H6.66675V13Z" fill="#FFA800"/>
</g>
</g>
<defs>
<clipPath id="clip0_2966_402">
<rect width="24" height="24" fill="white" transform="translate(0.666748)"/>
</clipPath>
</defs>
</svg>
