<svg width="32" height="33" viewBox="0 0 32 33" fill="none" xmlns="http://www.w3.org/2000/svg">
<g id="logos/instagram-fill" clip-path="url(#clip0_3177_235)">
<g id="Group">
<path id="Vector" d="M16 3.08252C19.6227 3.08252 20.0747 3.09585 21.496 3.16252C22.916 3.22919 23.8827 3.45185 24.7333 3.78252C25.6133 4.12119 26.3547 4.57985 27.096 5.31985C27.774 5.98638 28.2986 6.79264 28.6333 7.68252C28.9627 8.53185 29.1867 9.49985 29.2533 10.9199C29.316 12.3412 29.3333 12.7932 29.3333 16.4159C29.3333 20.0385 29.32 20.4905 29.2533 21.9119C29.1867 23.3319 28.9627 24.2985 28.6333 25.1492C28.2996 26.0396 27.7748 26.846 27.096 27.5119C26.4293 28.1896 25.6231 28.7142 24.7333 29.0492C23.884 29.3785 22.916 29.6025 21.496 29.6692C20.0747 29.7319 19.6227 29.7492 16 29.7492C12.3773 29.7492 11.9253 29.7359 10.504 29.6692C9.08399 29.6025 8.11732 29.3785 7.26666 29.0492C6.37642 28.7152 5.57003 28.1904 4.90399 27.5119C4.22587 26.8454 3.70123 26.0391 3.36666 25.1492C3.03599 24.2999 2.81332 23.3319 2.74666 21.9119C2.68399 20.4905 2.66666 20.0385 2.66666 16.4159C2.66666 12.7932 2.67999 12.3412 2.74666 10.9199C2.81332 9.49852 3.03599 8.53319 3.36666 7.68252C3.7003 6.79209 4.22506 5.98561 4.90399 5.31985C5.57022 4.64149 6.37656 4.11683 7.26666 3.78252C8.11732 3.45185 9.08266 3.22919 10.504 3.16252C11.9253 3.09985 12.3773 3.08252 16 3.08252ZM16 9.74919C14.2319 9.74919 12.5362 10.4516 11.2859 11.7018C10.0357 12.9521 9.33332 14.6477 9.33332 16.4159C9.33332 18.184 10.0357 19.8797 11.2859 21.1299C12.5362 22.3801 14.2319 23.0825 16 23.0825C17.7681 23.0825 19.4638 22.3801 20.714 21.1299C21.9643 19.8797 22.6667 18.184 22.6667 16.4159C22.6667 14.6477 21.9643 12.9521 20.714 11.7018C19.4638 10.4516 17.7681 9.74919 16 9.74919ZM24.6667 9.41585C24.6667 8.97383 24.4911 8.5499 24.1785 8.23734C23.8659 7.92478 23.442 7.74919 23 7.74919C22.558 7.74919 22.134 7.92478 21.8215 8.23734C21.5089 8.5499 21.3333 8.97383 21.3333 9.41585C21.3333 9.85788 21.5089 10.2818 21.8215 10.5944C22.134 10.9069 22.558 11.0825 23 11.0825C23.442 11.0825 23.8659 10.9069 24.1785 10.5944C24.4911 10.2818 24.6667 9.85788 24.6667 9.41585ZM16 12.4159C17.0609 12.4159 18.0783 12.8373 18.8284 13.5874C19.5786 14.3376 20 15.355 20 16.4159C20 17.4767 19.5786 18.4941 18.8284 19.2443C18.0783 19.9944 17.0609 20.4159 16 20.4159C14.9391 20.4159 13.9217 19.9944 13.1716 19.2443C12.4214 18.4941 12 17.4767 12 16.4159C12 15.355 12.4214 14.3376 13.1716 13.5874C13.9217 12.8373 14.9391 12.4159 16 12.4159Z" fill="#7B61FF"/>
</g>
</g>
<defs>
<clipPath id="clip0_3177_235">
<rect width="32" height="32" fill="white" transform="translate(0 0.416016)"/>
</clipPath>
</defs>
</svg>
