<svg width="88" height="36" viewBox="0 0 88 36" fill="none" xmlns="http://www.w3.org/2000/svg">
<path d="M0.048 24.228C0.592 23.796 0.84 23.596 0.792 23.628C2.36 22.332 3.592 21.268 4.488 20.436C5.4 19.604 6.168 18.732 6.792 17.82C7.416 16.908 7.728 16.02 7.728 15.156C7.728 14.5 7.576 13.988 7.272 13.62C6.968 13.252 6.512 13.068 5.904 13.068C5.296 13.068 4.816 13.3 4.464 13.764C4.128 14.212 3.96 14.852 3.96 15.684H0C0.032 14.324 0.32 13.188 0.864 12.276C1.424 11.364 2.152 10.692 3.048 10.26C3.96 9.82799 4.968 9.61199 6.072 9.61199C7.976 9.61199 9.408 10.1 10.368 11.076C11.344 12.052 11.832 13.324 11.832 14.892C11.832 16.604 11.248 18.196 10.08 19.668C8.912 21.124 7.424 22.548 5.616 23.94H12.096V27.276H0.048V24.228Z" fill="white"/>
<path d="M18.4149 16.356C18.8949 15.62 19.4949 15.044 20.2149 14.628C20.9349 14.196 21.7349 13.98 22.6149 13.98V18.324H21.4869C20.4629 18.324 19.6949 18.548 19.1829 18.996C18.6709 19.428 18.4149 20.196 18.4149 21.3V27.516H14.3109V14.124H18.4149V16.356Z" fill="white"/>
<path d="M26.6406 12.732C25.9206 12.732 25.3286 12.524 24.8646 12.108C24.4166 11.676 24.1926 11.148 24.1926 10.524C24.1926 9.88399 24.4166 9.35599 24.8646 8.93999C25.3286 8.50799 25.9206 8.29199 26.6406 8.29199C27.3446 8.29199 27.9206 8.50799 28.3686 8.93999C28.8326 9.35599 29.0646 9.88399 29.0646 10.524C29.0646 11.148 28.8326 11.676 28.3686 12.108C27.9206 12.524 27.3446 12.732 26.6406 12.732ZM28.6806 14.124V27.516H24.5766V14.124H28.6806Z" fill="white"/>
<path d="M37.1027 27.708C35.9347 27.708 34.8947 27.508 33.9827 27.108C33.0707 26.708 32.3507 26.164 31.8227 25.476C31.2947 24.772 30.9987 23.988 30.9347 23.124H34.9907C35.0387 23.588 35.2547 23.964 35.6387 24.252C36.0227 24.54 36.4947 24.684 37.0547 24.684C37.5667 24.684 37.9587 24.588 38.2307 24.396C38.5187 24.188 38.6627 23.924 38.6627 23.604C38.6627 23.22 38.4627 22.94 38.0627 22.764C37.6627 22.572 37.0147 22.364 36.1187 22.14C35.1587 21.916 34.3587 21.684 33.7187 21.444C33.0787 21.188 32.5267 20.796 32.0627 20.268C31.5987 19.724 31.3667 18.996 31.3667 18.084C31.3667 17.316 31.5747 16.62 31.9907 15.996C32.4227 15.356 33.0467 14.852 33.8627 14.484C34.6947 14.116 35.6787 13.932 36.8147 13.932C38.4947 13.932 39.8147 14.348 40.7747 15.18C41.7507 16.012 42.3107 17.116 42.4547 18.492H38.6627C38.5987 18.028 38.3907 17.66 38.0387 17.388C37.7027 17.116 37.2547 16.98 36.6947 16.98C36.2147 16.98 35.8467 17.076 35.5907 17.268C35.3347 17.444 35.2067 17.692 35.2067 18.012C35.2067 18.396 35.4067 18.684 35.8067 18.876C36.2227 19.068 36.8627 19.26 37.7267 19.452C38.7187 19.708 39.5267 19.964 40.1507 20.22C40.7747 20.46 41.3187 20.86 41.7827 21.42C42.2627 21.964 42.5107 22.7 42.5267 23.628C42.5267 24.412 42.3027 25.116 41.8547 25.74C41.4227 26.348 40.7907 26.828 39.9587 27.18C39.1427 27.532 38.1907 27.708 37.1027 27.708Z" fill="white"/>
<path d="M62.1255 13.98C63.7895 13.98 65.1095 14.484 66.0855 15.492C67.0775 16.5 67.5735 17.9 67.5735 19.692V27.516H63.4935V20.244C63.4935 19.38 63.2615 18.716 62.7975 18.252C62.3495 17.772 61.7255 17.532 60.9255 17.532C60.1255 17.532 59.4935 17.772 59.0295 18.252C58.5815 18.716 58.3575 19.38 58.3575 20.244V27.516H54.2775V20.244C54.2775 19.38 54.0455 18.716 53.5815 18.252C53.1335 17.772 52.5095 17.532 51.7095 17.532C50.9095 17.532 50.2775 17.772 49.8135 18.252C49.3655 18.716 49.1415 19.38 49.1415 20.244V27.516H45.0375V14.124H49.1415V15.804C49.5575 15.244 50.1015 14.804 50.7735 14.484C51.4455 14.148 52.2055 13.98 53.0535 13.98C54.0615 13.98 54.9575 14.196 55.7415 14.628C56.5415 15.06 57.1655 15.676 57.6135 16.476C58.0775 15.74 58.7095 15.14 59.5095 14.676C60.3095 14.212 61.1815 13.98 62.1255 13.98Z" fill="white"/>
<g clip-path="url(#clip0_2966_295)">
<path d="M72.8708 6.502C72.5228 6.386 72.5195 6.19867 72.8775 6.07933L85.6021 1.838C85.9548 1.72067 86.1568 1.918 86.0581 2.26333L82.4221 14.9873C82.3221 15.34 82.1188 15.352 81.9695 15.0173L79.5735 9.62533L83.5735 4.292L78.2401 8.292L72.8708 6.502Z" fill="#7B61FF"/>
</g>
<defs>
<clipPath id="clip0_2966_295">
<rect width="16" height="16" fill="white" transform="translate(71.5735 0.291992)"/>
</clipPath>
</defs>
</svg>
